<svg xmlns="http://www.w3.org/2000/svg" xmlns:xlink="http://www.w3.org/1999/xlink" width="31.589" height="46" viewBox="0 0 31.589 46"><defs><linearGradient id="a" x1="0.5" x2="0.5" y2="1" gradientUnits="objectBoundingBox"><stop offset="0" stop-color="#9672fb"/><stop offset="1" stop-color="#d772fb"/></linearGradient></defs><g transform="translate(-138 -40)"><g transform="translate(148.135 40) rotate(14)"><g transform="translate(0 0)"><path d="M15.625,41.255a1.5,1.5,0,0,1-1.227.64H7.6a7.171,7.171,0,0,1-5.443-2.607A9.182,9.182,0,0,1,0,33.306v-16.9a9.183,9.183,0,0,1,2.152-5.982,7.362,7.362,0,0,1,4.085-2.47A9.12,9.12,0,0,1,8.369,2.607,7.171,7.171,0,0,1,13.812,0h6.8a1.5,1.5,0,0,1,1.111,2.5l-6.1,7.672a1.5,1.5,0,0,1-1.227.64H9.21V25.488a6.193,6.193,0,0,0,1.427,4.041,4.208,4.208,0,0,0,3.175,1.555h6.8a1.5,1.5,0,0,1,1.112,2.5l-6.1,7.673ZM9.253,7.818h4.425l3.837-4.825h-3.7a4.208,4.208,0,0,0-3.175,1.555,6.066,6.066,0,0,0-1.384,3.27ZM6.217,11.071a4.545,4.545,0,0,0-1.8,1.3,6.193,6.193,0,0,0-1.427,4.041v16.9A6.194,6.194,0,0,0,4.42,37.347,4.208,4.208,0,0,0,7.6,38.9h6.084l3.837-4.825h-3.7A7.171,7.171,0,0,1,8.369,31.47a9.182,9.182,0,0,1-2.152-5.982V11.071Z" fill="url(#a)"/></g></g></g></svg>